<mxfile host="app.diagrams.net" modified="2023-09-05T14:32:21.669Z" agent="Mozilla/5.0 (Macintosh; Intel Mac OS X 10_15_7) AppleWebKit/537.36 (KHTML, like Gecko) Chrome/116.0.0.0 Safari/537.36" etag="d_bHFJej_hK5Cg6zurx5" version="21.7.2" type="github">
  <diagram name="Page-1" id="03018318-947c-dd8e-b7a3-06fadd420f32">
    <mxGraphModel dx="1592" dy="952" grid="1" gridSize="10" guides="1" tooltips="1" connect="1" arrows="1" fold="1" page="1" pageScale="1" pageWidth="1100" pageHeight="850" background="#ffffff" math="0" shadow="0">
      <root>
        <mxCell id="0" />
        <mxCell id="1" parent="0" />
        <mxCell id="677b7b8949515195-1" value="" style="whiteSpace=wrap;html=1;rounded=0;shadow=0;labelBackgroundColor=none;strokeColor=#000000;strokeWidth=1;fillColor=none;fontFamily=Verdana;fontSize=12;fontColor=#000000;align=center;comic=1;" parent="1" vertex="1">
          <mxGeometry x="20" y="20" width="1060" height="1630" as="geometry" />
        </mxCell>
        <mxCell id="677b7b8949515195-2" value="LOGO" style="whiteSpace=wrap;html=1;rounded=0;shadow=0;labelBackgroundColor=none;strokeWidth=1;fontFamily=Verdana;fontSize=28;align=center;comic=1;fillColor=default;" parent="1" vertex="1">
          <mxGeometry x="40" y="36.5" width="148.2" height="39" as="geometry" />
        </mxCell>
        <mxCell id="677b7b8949515195-10" value="" style="whiteSpace=wrap;html=1;rounded=0;shadow=0;labelBackgroundColor=none;strokeWidth=1;fillColor=none;fontFamily=Verdana;fontSize=12;align=center;comic=1;" parent="1" vertex="1">
          <mxGeometry x="30" y="31" width="1040" height="50" as="geometry" />
        </mxCell>
        <mxCell id="677b7b8949515195-11" value="Item 1" style="text;html=1;points=[];align=left;verticalAlign=top;spacingTop=-4;fontSize=14;fontFamily=Verdana" parent="1" vertex="1">
          <mxGeometry x="690" y="46" width="60" height="20" as="geometry" />
        </mxCell>
        <mxCell id="677b7b8949515195-12" value="Item 2" style="text;html=1;points=[];align=left;verticalAlign=top;spacingTop=-4;fontSize=14;fontFamily=Verdana" parent="1" vertex="1">
          <mxGeometry x="790" y="46" width="60" height="20" as="geometry" />
        </mxCell>
        <mxCell id="677b7b8949515195-13" value="Item 3" style="text;html=1;points=[];align=left;verticalAlign=top;spacingTop=-4;fontSize=14;fontFamily=Verdana" parent="1" vertex="1">
          <mxGeometry x="890" y="46" width="60" height="20" as="geometry" />
        </mxCell>
        <mxCell id="677b7b8949515195-14" value="Item 4" style="text;html=1;points=[];align=left;verticalAlign=top;spacingTop=-4;fontSize=14;fontFamily=Verdana" parent="1" vertex="1">
          <mxGeometry x="980" y="46" width="60" height="20" as="geometry" />
        </mxCell>
        <mxCell id="677b7b8949515195-16" value="" style="verticalLabelPosition=bottom;shadow=0;dashed=0;align=center;html=1;verticalAlign=top;strokeWidth=1;shape=mxgraph.mockup.graphics.simpleIcon;strokeColor=#999999;rounded=0;labelBackgroundColor=none;fontFamily=Verdana;fontSize=14;fontColor=#000000;comic=1;" parent="1" vertex="1">
          <mxGeometry x="135" y="100" width="830" height="200" as="geometry" />
        </mxCell>
        <mxCell id="oSKXWUkWQ3MO2fb63xKX-14" value="" style="shape=rect;fillColor=#F6F6F6;strokeColor=default;rounded=0;shadow=0;labelBackgroundColor=none;comic=1;strokeWidth=1;fontFamily=Verdana;fontSize=12;fontColor=default;html=1;" vertex="1" parent="1">
          <mxGeometry x="135" y="322" width="834" height="40" as="geometry" />
        </mxCell>
        <mxCell id="oSKXWUkWQ3MO2fb63xKX-15" value="" style="html=1;strokeWidth=1;shadow=0;dashed=0;shape=mxgraph.ios7ui.marginRect;rx=3;ry=3;rectMargin=5;fillColor=#E4E4E4;strokeColor=none;rounded=0;labelBackgroundColor=none;comic=1;fontFamily=Verdana;fontSize=12;fontColor=default;" vertex="1" parent="oSKXWUkWQ3MO2fb63xKX-14">
          <mxGeometry width="834" height="40" as="geometry" />
        </mxCell>
        <mxCell id="oSKXWUkWQ3MO2fb63xKX-16" value="Search" style="shape=mxgraph.ios7.icons.looking_glass;strokeColor=#878789;fillColor=none;fontColor=#878789;labelPosition=right;verticalLabelPosition=middle;align=left;verticalAlign=middle;fontSize=6;fontStyle=0;spacingTop=2;sketch=0;html=1;rounded=0;shadow=0;labelBackgroundColor=none;comic=1;strokeWidth=1;fontFamily=Verdana;" vertex="1" parent="oSKXWUkWQ3MO2fb63xKX-14">
          <mxGeometry x="0.5" y="0.5" width="6" height="6" relative="1" as="geometry">
            <mxPoint x="-17" y="-3" as="offset" />
          </mxGeometry>
        </mxCell>
        <mxCell id="oSKXWUkWQ3MO2fb63xKX-17" value="" style="rounded=0;whiteSpace=wrap;html=1;shadow=0;labelBackgroundColor=none;comic=1;strokeColor=default;strokeWidth=1;fontFamily=Verdana;fontSize=12;fontColor=default;fillColor=none;" vertex="1" parent="1">
          <mxGeometry x="138" y="404" width="832" height="249" as="geometry" />
        </mxCell>
        <mxCell id="oSKXWUkWQ3MO2fb63xKX-18" value="&lt;font style=&quot;font-size: 16px;&quot;&gt;Section 1&lt;/font&gt;" style="text;strokeColor=none;fillColor=none;html=1;fontSize=12;fontStyle=1;verticalAlign=middle;align=center;fontFamily=Verdana;fontColor=default;" vertex="1" parent="1">
          <mxGeometry x="143" y="406" width="100" height="40" as="geometry" />
        </mxCell>
        <mxCell id="oSKXWUkWQ3MO2fb63xKX-19" value="" style="whiteSpace=wrap;html=1;aspect=fixed;rounded=0;shadow=0;labelBackgroundColor=none;comic=1;strokeColor=default;strokeWidth=1;fontFamily=Verdana;fontSize=12;fontColor=default;fillColor=none;" vertex="1" parent="1">
          <mxGeometry x="169" y="467" width="145" height="145" as="geometry" />
        </mxCell>
        <mxCell id="oSKXWUkWQ3MO2fb63xKX-20" value="" style="whiteSpace=wrap;html=1;aspect=fixed;rounded=0;shadow=0;labelBackgroundColor=none;comic=1;strokeColor=default;strokeWidth=1;fontFamily=Verdana;fontSize=12;fontColor=default;fillColor=none;" vertex="1" parent="1">
          <mxGeometry x="379" y="467" width="145" height="145" as="geometry" />
        </mxCell>
        <mxCell id="oSKXWUkWQ3MO2fb63xKX-21" value="" style="whiteSpace=wrap;html=1;aspect=fixed;rounded=0;shadow=0;labelBackgroundColor=none;comic=1;strokeColor=default;strokeWidth=1;fontFamily=Verdana;fontSize=12;fontColor=default;fillColor=none;" vertex="1" parent="1">
          <mxGeometry x="584" y="467" width="145" height="145" as="geometry" />
        </mxCell>
        <mxCell id="oSKXWUkWQ3MO2fb63xKX-22" value="" style="whiteSpace=wrap;html=1;aspect=fixed;rounded=0;shadow=0;labelBackgroundColor=none;comic=1;strokeColor=default;strokeWidth=1;fontFamily=Verdana;fontSize=12;fontColor=default;fillColor=none;" vertex="1" parent="1">
          <mxGeometry x="784" y="467" width="145" height="145" as="geometry" />
        </mxCell>
        <mxCell id="oSKXWUkWQ3MO2fb63xKX-24" value="" style="rounded=0;whiteSpace=wrap;html=1;shadow=0;labelBackgroundColor=none;comic=1;strokeColor=default;strokeWidth=1;fontFamily=Verdana;fontSize=12;fontColor=default;fillColor=none;" vertex="1" parent="1">
          <mxGeometry x="140" y="690" width="825" height="240" as="geometry" />
        </mxCell>
        <mxCell id="oSKXWUkWQ3MO2fb63xKX-25" value="&lt;font style=&quot;font-size: 16px;&quot;&gt;Section 3&lt;/font&gt;" style="text;strokeColor=none;fillColor=none;html=1;fontSize=12;fontStyle=1;verticalAlign=middle;align=center;fontFamily=Verdana;fontColor=default;" vertex="1" parent="1">
          <mxGeometry x="145" y="693" width="100" height="40" as="geometry" />
        </mxCell>
        <mxCell id="oSKXWUkWQ3MO2fb63xKX-26" value="" style="whiteSpace=wrap;html=1;aspect=fixed;rounded=0;shadow=0;labelBackgroundColor=none;comic=1;strokeColor=default;strokeWidth=1;fontFamily=Verdana;fontSize=12;fontColor=default;fillColor=none;" vertex="1" parent="1">
          <mxGeometry x="171" y="748" width="145" height="145" as="geometry" />
        </mxCell>
        <mxCell id="oSKXWUkWQ3MO2fb63xKX-27" value="" style="whiteSpace=wrap;html=1;aspect=fixed;rounded=0;shadow=0;labelBackgroundColor=none;comic=1;strokeColor=default;strokeWidth=1;fontFamily=Verdana;fontSize=12;fontColor=default;fillColor=none;" vertex="1" parent="1">
          <mxGeometry x="381" y="748" width="145" height="145" as="geometry" />
        </mxCell>
        <mxCell id="oSKXWUkWQ3MO2fb63xKX-28" value="" style="whiteSpace=wrap;html=1;aspect=fixed;rounded=0;shadow=0;labelBackgroundColor=none;comic=1;strokeColor=default;strokeWidth=1;fontFamily=Verdana;fontSize=12;fontColor=default;fillColor=none;" vertex="1" parent="1">
          <mxGeometry x="586" y="748" width="145" height="145" as="geometry" />
        </mxCell>
        <mxCell id="oSKXWUkWQ3MO2fb63xKX-29" value="" style="whiteSpace=wrap;html=1;aspect=fixed;rounded=0;shadow=0;labelBackgroundColor=none;comic=1;strokeColor=default;strokeWidth=1;fontFamily=Verdana;fontSize=12;fontColor=default;fillColor=none;" vertex="1" parent="1">
          <mxGeometry x="786" y="748" width="145" height="145" as="geometry" />
        </mxCell>
        <mxCell id="oSKXWUkWQ3MO2fb63xKX-31" value="" style="rounded=0;whiteSpace=wrap;html=1;shadow=0;labelBackgroundColor=none;comic=1;strokeColor=default;strokeWidth=1;fontFamily=Verdana;fontSize=12;fontColor=default;fillColor=none;" vertex="1" parent="1">
          <mxGeometry x="139.5" y="977" width="825" height="240" as="geometry" />
        </mxCell>
        <mxCell id="oSKXWUkWQ3MO2fb63xKX-32" value="&lt;font style=&quot;font-size: 16px;&quot;&gt;Section 3&lt;/font&gt;" style="text;strokeColor=none;fillColor=none;html=1;fontSize=12;fontStyle=1;verticalAlign=middle;align=center;fontFamily=Verdana;fontColor=default;" vertex="1" parent="1">
          <mxGeometry x="144.5" y="980" width="100" height="40" as="geometry" />
        </mxCell>
        <mxCell id="oSKXWUkWQ3MO2fb63xKX-35" value="" style="rounded=0;whiteSpace=wrap;html=1;shadow=0;labelBackgroundColor=none;comic=1;strokeColor=default;strokeWidth=1;fontFamily=Verdana;fontSize=12;fontColor=default;fillColor=none;" vertex="1" parent="1">
          <mxGeometry x="171" y="1050" width="369" height="120" as="geometry" />
        </mxCell>
        <mxCell id="oSKXWUkWQ3MO2fb63xKX-36" value="" style="rounded=0;whiteSpace=wrap;html=1;shadow=0;labelBackgroundColor=none;comic=1;strokeColor=default;strokeWidth=1;fontFamily=Verdana;fontSize=12;fontColor=default;fillColor=none;" vertex="1" parent="1">
          <mxGeometry x="562" y="1050" width="369" height="120" as="geometry" />
        </mxCell>
        <mxCell id="oSKXWUkWQ3MO2fb63xKX-37" value="" style="rounded=0;whiteSpace=wrap;html=1;shadow=0;labelBackgroundColor=none;comic=1;strokeColor=default;strokeWidth=1;fontFamily=Verdana;fontSize=12;fontColor=default;fillColor=none;" vertex="1" parent="1">
          <mxGeometry x="135" y="1290" width="825" height="240" as="geometry" />
        </mxCell>
      </root>
    </mxGraphModel>
  </diagram>
</mxfile>
